<?xml version="1.0" standalone="no"?>
<!DOCTYPE svg PUBLIC "-//W3C//DTD SVG 20010904//EN"
 "http://www.w3.org/TR/2001/REC-SVG-20010904/DTD/svg10.dtd">
<svg version="1.0" xmlns="http://www.w3.org/2000/svg"
 width="700.000000pt" height="700.000000pt" viewBox="0 0 700.000000 700.000000"
 preserveAspectRatio="xMidYMid meet">
<metadata>
SocialCaution Safari Pinned Tab Icon
</metadata>
<g transform="translate(0.000000,700.000000) scale(0.100000,-0.100000)"
fill="#000000" stroke="none">
<path d="M3280 6294 c-594 -67 -1130 -312 -1555 -712 -205 -192 -356 -383
-505 -637 -242 -414 -355 -831 -355 -1310 0 -479 113 -896 355 -1310 149
-254 300 -445 505 -637 425 -400 961 -645 1555 -712 155 -17 525 -17 680 0
594 67 1130 312 1555 712 205 192 356 383 505 637 242 414 355 831 355 1310
0 479 -113 896 -355 1310 -149 254 -300 445 -505 637 -425 400 -961 645
-1555 712 -139 16 -545 16 -680 0z m615 -684 c497 -54 966 -273 1320 -617
356 -345 590 -779 680 -1260 33 -173 45 -332 45 -598 0 -266 -12 -425 -45
-598 -90 -481 -324 -915 -680 -1260 -345 -356 -779 -590 -1260 -680 -173 -33
-332 -45 -598 -45 -266 0 -425 12 -598 45 -481 90 -915 324 -1260 680 -356
345 -590 779 -680 1260 -33 173 -45 332 -45 598 0 266 12 425 45 598 90 481
324 915 680 1260 345 356 779 590 1260 680 173 33 332 45 598 45 138 0 302
-5 363 -10z"/>
<path d="M3395 5155 c-93 -20 -175 -66 -246 -137 -114 -114 -159 -243 -159
-453 0 -210 45 -339 159 -453 114 -114 243 -159 453 -159 210 0 339 45 453
159 114 114 159 243 159 453 0 210 -45 339 -159 453 -88 88 -191 138 -320
157 -84 12 -258 4 -340 -20z"/>
<path d="M3170 2915 l0 -965 265 0 265 0 0 965 0 965 -265 0 -265 0 0 -965z"/>
</g>
</svg>

